<svg width="744" height="540" viewBox="0 0 744 540" fill="none" xmlns="http://www.w3.org/2000/svg">
    <path d="M474.114 404.285V534.285H148.415C111.306 534.285 81.1143 505.125 81.1143 469.285C81.1143 433.445 111.306 404.285 148.415 404.285H474.114Z" fill="#F2F2F2"/>
    <path d="M482.114 533.285C482.114 534.611 481.587 535.883 480.649 536.82C479.712 537.758 478.44 538.285 477.114 538.285H142.614C124.447 538.285 107.024 531.068 94.1775 518.222C81.3312 505.376 74.1143 487.952 74.1143 469.785C74.1143 451.618 81.3312 434.195 94.1775 421.348C107.024 408.502 124.447 401.285 142.614 401.285H477.114C478.44 401.285 479.712 401.812 480.65 402.75C481.587 403.687 482.114 404.959 482.114 406.285C482.114 407.611 481.587 408.883 480.65 409.821C479.712 410.758 478.44 411.285 477.114 411.285H142.614C127.099 411.285 112.219 417.449 101.249 428.419C90.2776 439.39 84.1143 454.27 84.1143 469.785C84.1143 485.3 90.2776 500.18 101.249 511.151C112.219 522.122 127.099 528.285 142.614 528.285H477.114C478.44 528.286 479.712 528.813 480.649 529.75C481.587 530.688 482.114 531.959 482.114 533.285Z" fill="#2B7A78"/>
    <path d="M474.114 434.285H124.114C123.849 434.285 123.595 434.18 123.407 433.992C123.22 433.805 123.114 433.55 123.114 433.285C123.114 433.02 123.22 432.766 123.407 432.578C123.595 432.391 123.849 432.285 124.114 432.285H474.114C474.38 432.285 474.634 432.391 474.821 432.578C475.009 432.766 475.114 433.02 475.114 433.285C475.114 433.55 475.009 433.805 474.821 433.992C474.634 434.18 474.38 434.285 474.114 434.285Z" fill="#CCCCCC"/>
    <path d="M474.114 458.285H124.114C123.849 458.285 123.595 458.18 123.407 457.992C123.22 457.805 123.114 457.55 123.114 457.285C123.114 457.02 123.22 456.766 123.407 456.578C123.595 456.391 123.849 456.285 124.114 456.285H474.114C474.38 456.285 474.634 456.391 474.821 456.578C475.009 456.766 475.114 457.02 475.114 457.285C475.114 457.55 475.009 457.805 474.821 457.992C474.634 458.18 474.38 458.285 474.114 458.285Z" fill="#CCCCCC"/>
    <path d="M474.114 482.285H124.114C123.849 482.285 123.595 482.18 123.407 481.992C123.22 481.805 123.114 481.55 123.114 481.285C123.114 481.02 123.22 480.766 123.407 480.578C123.595 480.391 123.849 480.285 124.114 480.285H474.114C474.38 480.285 474.634 480.391 474.821 480.578C475.009 480.766 475.114 481.02 475.114 481.285C475.114 481.55 475.009 481.805 474.821 481.992C474.634 482.18 474.38 482.285 474.114 482.285Z" fill="#CCCCCC"/>
    <path d="M474.114 506.285H124.114C123.849 506.285 123.595 506.18 123.407 505.992C123.22 505.805 123.114 505.55 123.114 505.285C123.114 505.02 123.22 504.766 123.407 504.578C123.595 504.391 123.849 504.285 124.114 504.285H474.114C474.38 504.285 474.634 504.391 474.821 504.578C475.009 504.766 475.114 505.02 475.114 505.285C475.114 505.55 475.009 505.805 474.821 505.992C474.634 506.18 474.38 506.285 474.114 506.285Z" fill="#CCCCCC"/>
    <path d="M725.832 428.757L644.267 529.986L390.652 325.636C361.756 302.353 356.541 260.703 379.028 232.795C401.515 204.887 443.32 201.124 472.216 224.407L725.832 428.757Z" fill="#F2F2F2"/>
    <path d="M651.124 534.225C650.291 535.258 649.083 535.917 647.765 536.059C646.447 536.201 645.126 535.813 644.093 534.982L383.625 325.109C369.478 313.711 360.439 297.159 358.496 279.096C356.553 261.033 361.865 242.938 373.263 228.791C384.662 214.645 401.213 205.606 419.277 203.663C437.34 201.72 455.435 207.032 469.581 218.43L730.05 428.303C730.562 428.714 730.987 429.223 731.302 429.799C731.617 430.376 731.816 431.008 731.886 431.662C731.957 432.315 731.898 432.975 731.713 433.605C731.528 434.236 731.221 434.823 730.809 435.335C730.396 435.846 729.887 436.272 729.311 436.586C728.734 436.901 728.102 437.099 727.448 437.169C726.795 437.239 726.135 437.18 725.505 436.995C724.874 436.809 724.287 436.502 723.776 436.089L463.307 226.217C457.325 221.393 450.452 217.795 443.08 215.629C435.707 213.462 427.98 212.769 420.34 213.59C412.699 214.41 405.295 216.728 398.551 220.41C391.806 224.093 385.854 229.068 381.032 235.051C376.211 241.035 372.616 247.91 370.452 255.283C368.288 262.656 367.599 270.384 368.422 278.024C369.245 285.664 371.566 293.067 375.251 299.81C378.936 306.553 383.913 312.504 389.899 317.323L650.367 527.195C651.4 528.027 652.059 529.235 652.201 530.554C652.343 531.872 651.955 533.193 651.124 534.225Z" fill="#CCCCCC"/>
    <path d="M707.009 452.118L434.471 232.521C434.368 232.438 434.283 232.337 434.221 232.221C434.158 232.106 434.118 231.98 434.104 231.849C434.09 231.719 434.102 231.587 434.139 231.461C434.176 231.335 434.237 231.217 434.319 231.115C434.402 231.012 434.504 230.927 434.619 230.865C434.734 230.802 434.861 230.762 434.991 230.748C435.122 230.734 435.254 230.746 435.38 230.783C435.506 230.82 435.623 230.881 435.726 230.964L708.264 450.561C708.366 450.643 708.451 450.745 708.514 450.86C708.578 450.975 708.617 451.102 708.631 451.233C708.646 451.363 708.634 451.496 708.597 451.622C708.56 451.748 708.498 451.865 708.416 451.968C708.333 452.07 708.232 452.155 708.116 452.218C708.001 452.281 707.874 452.321 707.744 452.335C707.613 452.349 707.481 452.337 707.355 452.3C707.229 452.262 707.111 452.201 707.009 452.118V452.118Z" fill="#CCCCCC"/>
    <path d="M691.951 470.805L419.413 251.208C419.207 251.041 419.075 250.799 419.047 250.536C419.019 250.272 419.096 250.009 419.262 249.802C419.429 249.596 419.67 249.464 419.933 249.435C420.197 249.407 420.461 249.484 420.667 249.65L693.206 469.248C693.308 469.33 693.393 469.432 693.456 469.547C693.519 469.662 693.559 469.789 693.573 469.919C693.587 470.05 693.576 470.182 693.539 470.308C693.502 470.435 693.44 470.552 693.358 470.654C693.275 470.757 693.174 470.842 693.058 470.905C692.943 470.968 692.816 471.007 692.685 471.021C692.555 471.035 692.423 471.023 692.297 470.986C692.171 470.949 692.053 470.888 691.951 470.805Z" fill="#CCCCCC"/>
    <path d="M676.893 489.493L404.355 269.896C404.148 269.729 404.016 269.488 403.988 269.224C403.959 268.96 404.037 268.696 404.203 268.49C404.37 268.283 404.611 268.151 404.875 268.123C405.139 268.095 405.403 268.172 405.609 268.339L678.147 487.936C678.25 488.018 678.335 488.12 678.398 488.235C678.461 488.351 678.5 488.477 678.514 488.608C678.528 488.738 678.517 488.87 678.48 488.996C678.443 489.122 678.381 489.24 678.299 489.342C678.216 489.444 678.115 489.529 677.999 489.592C677.884 489.655 677.758 489.695 677.627 489.709C677.496 489.723 677.364 489.711 677.238 489.674C677.112 489.637 676.995 489.576 676.893 489.493V489.493Z" fill="#CCCCCC"/>
    <path d="M661.835 508.183L389.296 288.585C389.194 288.503 389.109 288.401 389.046 288.286C388.983 288.171 388.944 288.044 388.93 287.914C388.916 287.783 388.927 287.651 388.964 287.525C389.001 287.399 389.063 287.281 389.145 287.179C389.228 287.077 389.329 286.992 389.445 286.929C389.56 286.866 389.686 286.826 389.817 286.812C389.947 286.798 390.079 286.81 390.205 286.847C390.332 286.884 390.449 286.946 390.551 287.028L663.089 506.625C663.192 506.708 663.277 506.809 663.34 506.925C663.403 507.04 663.443 507.166 663.457 507.297C663.471 507.428 663.46 507.56 663.423 507.686C663.386 507.812 663.324 507.93 663.242 508.032C663.159 508.135 663.057 508.22 662.942 508.283C662.827 508.345 662.7 508.385 662.569 508.399C662.439 508.413 662.306 508.401 662.18 508.364C662.054 508.327 661.937 508.265 661.835 508.183Z" fill="#CCCCCC"/>
    <path d="M338.081 390.622L326.649 390.621L321.212 346.525L338.085 346.527L338.081 390.622Z" fill="#FFB8B8"/>
    <path d="M318.483 387.355H340.53V401.237H304.601C304.601 399.414 304.96 397.609 305.657 395.925C306.355 394.241 307.377 392.71 308.666 391.421C309.956 390.132 311.486 389.11 313.17 388.412C314.854 387.715 316.66 387.355 318.483 387.355Z" fill="#2F2E41"/>
    <path d="M221.286 390.622L209.854 390.621L204.417 346.525L221.29 346.527L221.286 390.622Z" fill="#FFB8B8"/>
    <path d="M201.688 387.355H223.736V401.237H187.806C187.806 399.414 188.165 397.609 188.863 395.925C189.56 394.241 190.583 392.71 191.872 391.421C193.161 390.132 194.691 389.11 196.375 388.412C198.06 387.715 199.865 387.355 201.688 387.355Z" fill="#2F2E41"/>
    <path d="M259.471 63.5333V58.5332C259.471 49.98 262.869 41.7771 268.917 35.729C274.965 29.681 283.168 26.2832 291.721 26.2832H291.721C300.274 26.2832 308.477 29.681 314.525 35.729C320.573 41.7771 323.971 49.98 323.971 58.5332V63.5333C323.971 69.6995 321.521 75.6133 317.161 79.9735C312.801 84.3337 306.887 86.7833 300.721 86.7833H282.721C279.668 86.7833 276.644 86.1819 273.824 85.0135C271.003 83.8451 268.44 82.1325 266.281 79.9735C264.122 77.8145 262.409 75.2515 261.241 72.4307C260.072 69.6098 259.471 66.5865 259.471 63.5333Z" fill="#2F2E41"/>
    <path d="M291.721 88.5029C305.286 88.5029 316.282 77.5066 316.282 63.9419C316.282 50.3772 305.286 39.3809 291.721 39.3809C278.156 39.3809 267.16 50.3772 267.16 63.9419C267.16 77.5066 278.156 88.5029 291.721 88.5029Z" fill="#FFB8B8"/>
    <path d="M158.125 148.356C159.121 147.415 160.312 146.704 161.614 146.273C162.915 145.842 164.295 145.701 165.656 145.861C167.018 146.021 168.328 146.477 169.494 147.198C170.66 147.919 171.653 148.887 172.405 150.033L193.459 146.051L199 158.255L169.188 163.462C167.178 164.597 164.822 164.955 162.566 164.469C160.31 163.982 158.311 162.685 156.947 160.823C155.583 158.961 154.95 156.664 155.167 154.366C155.384 152.068 156.436 149.93 158.125 148.356V148.356Z" fill="#FFB8B8"/>
    <path d="M272.573 103.97L272.848 104.388L238.322 127.132L180.064 145.735C179.292 145.983 178.629 146.492 178.189 147.173C177.75 147.855 177.56 148.668 177.652 149.474L178.923 160.42C178.979 160.905 179.136 161.372 179.384 161.792C179.631 162.213 179.964 162.576 180.36 162.861C180.757 163.145 181.208 163.343 181.686 163.443C182.163 163.542 182.656 163.541 183.133 163.439L237.963 151.686C240.616 151.12 243.125 150.016 245.334 148.44L284.122 120.843C285.528 119.838 286.65 118.485 287.379 116.917C288.108 115.349 288.418 113.619 288.28 111.896C288.138 110.17 287.549 108.511 286.571 107.082C285.593 105.653 284.26 104.503 282.703 103.746C281.146 102.988 279.418 102.649 277.691 102.761C275.963 102.874 274.294 103.434 272.848 104.388L272.573 103.97Z" fill="#CCCCCC"/>
    <path d="M326.853 378.109C325.976 378.109 325.117 377.854 324.382 377.374C323.648 376.894 323.069 376.211 322.716 375.408L270.306 245.907C270.183 245.626 269.978 245.389 269.717 245.229C269.456 245.068 269.152 244.991 268.846 245.008C268.54 245.025 268.247 245.136 268.006 245.325C267.765 245.514 267.587 245.772 267.497 246.065L224.739 372.139C224.558 372.725 224.26 373.269 223.861 373.736C223.463 374.203 222.973 374.584 222.422 374.854C221.871 375.125 221.271 375.28 220.658 375.311C220.045 375.341 219.432 375.245 218.857 375.03L204.519 369.653C203.741 369.364 203.058 368.864 202.546 368.21C202.035 367.556 201.715 366.773 201.622 365.948C195.171 309.756 251.422 167.918 251.991 166.493L252.148 166.098L303.426 177.44L303.532 177.557C323.99 199.875 340.806 340.639 343.969 368.63C344.087 369.641 343.857 370.662 343.317 371.525C342.777 372.388 341.959 373.041 340.998 373.377L328.342 377.853C327.864 378.022 327.36 378.109 326.853 378.109Z" fill="#2F2E41"/>
    <path d="M282.673 182.006C270.249 182.006 256.398 179.529 252.135 169.305L252.037 169.071L252.169 168.853C255.534 163.331 259.982 153.912 257.592 152.144C252.882 148.662 250.597 142.934 250.8 135.119C251.24 118.153 262.8 103.09 279.566 97.6364H279.566C284.246 96.1388 289.008 94.9127 293.829 93.9641C297.344 93.2549 300.972 93.3329 304.453 94.1925C307.934 95.0521 311.181 96.672 313.962 98.9358C316.777 101.214 319.053 104.088 320.626 107.351C322.198 110.614 323.029 114.184 323.058 117.806C323.233 135.937 320.442 161.19 306.145 178.527C305.475 179.331 304.543 179.873 303.512 180.058C296.634 181.302 289.662 181.954 282.673 182.006Z" fill="#CCCCCC"/>
    <path d="M278.051 181.327C278.727 178.902 280.333 176.841 282.52 175.594C284.707 174.346 287.298 174.011 289.729 174.663C290.226 174.802 290.71 174.981 291.177 175.199L307.164 160.65L318.282 168.141L295.42 188.372C294.388 190.233 292.763 191.695 290.803 192.527C288.844 193.358 286.663 193.51 284.607 192.958C283.409 192.63 282.289 192.069 281.31 191.305C280.331 190.542 279.513 189.592 278.903 188.51C278.294 187.428 277.904 186.237 277.758 185.004C277.612 183.771 277.711 182.521 278.051 181.327Z" fill="#FFB8B8"/>
    <path d="M304.632 181.511C303.595 181.512 302.589 181.153 301.786 180.496L295.482 175.344C294.956 174.915 294.535 174.372 294.249 173.756C293.963 173.141 293.82 172.469 293.83 171.79C293.841 171.111 294.004 170.444 294.309 169.838C294.614 169.231 295.053 168.702 295.591 168.289L322.033 148.009C322.346 147.767 322.552 147.412 322.605 147.02C322.658 146.628 322.554 146.231 322.316 145.914L305.996 124.338C304.1 121.84 303.149 118.751 303.311 115.619C303.474 112.487 304.739 109.513 306.883 107.224C309.142 104.785 312.235 103.284 315.548 103.019C318.862 102.754 322.154 103.744 324.771 105.793L324.874 105.902L341.916 130.304C343.759 131.749 345.243 133.601 346.252 135.714C347.261 137.827 347.768 140.145 347.733 142.487C347.698 144.828 347.123 147.13 346.051 149.212C344.98 151.294 343.441 153.101 341.556 154.49L307.311 180.629C306.535 181.202 305.596 181.511 304.632 181.511Z" fill="#CCCCCC"/>
    <path d="M269.965 57.0338V44.8477L291.721 35.3477L312.465 44.8477V57.0338C312.465 57.5642 312.255 58.0729 311.88 58.448C311.504 58.8231 310.996 59.0338 310.465 59.0338H271.965C271.435 59.0338 270.926 58.8231 270.551 58.448C270.176 58.0729 269.965 57.5642 269.965 57.0338Z" fill="#2F2E41"/>
    <path d="M290.722 27.8996C287.523 17.6611 294.241 5.92728 304.173 1.87461C314.104 -2.17806 325.986 0.654881 334.367 7.3505C342.747 14.0461 347.946 24.0749 350.701 34.4417C353.456 44.8084 353.979 55.6185 354.488 66.333C366.69 68.5744 374.99 83.0473 370.763 94.7114C366.536 106.375 350.891 112.17 340.086 106.074C329.28 99.9772 326.151 83.5891 333.949 73.94C337.639 69.3743 339.7 63.7079 339.806 57.8385C339.912 51.9691 338.057 46.232 334.535 41.536C331.012 36.84 326.023 33.4535 320.359 31.9128C314.694 30.3721 308.677 30.7654 303.261 33.0303C297.248 35.5452 289.702 29.0109 290.722 27.8996Z" fill="#2F2E41"/>
    </svg>
    