<svg width="28" height="28" viewBox="0 0 28 28" fill="none" xmlns="http://www.w3.org/2000/svg">
    <path fill-rule="evenodd" clip-rule="evenodd" d="M25.375 3.5H15.75L15.1375 3.7625L14 4.8825L12.8625 3.7625L12.25 3.5H2.625L1.75 4.375V21.875L2.625 22.75H11.8825L13.3875 24.2375H14.6125L16.1175 22.75H25.375L26.25 21.875V4.375L25.375 3.5ZM13.125 21.56L12.81 21.2625L12.25 21H3.5V5.25H11.8825L13.1775 6.545L13.125 21.56ZM24.5 21H15.75L15.1375 21.2625L14.8925 21.49V6.475L16.1175 5.25H24.5V21ZM10.5 8.75H5.25V10.5H10.5V8.75ZM10.5 15.75H5.25V17.5H10.5V15.75ZM5.25 12.25H10.5V14H5.25V12.25ZM22.75 8.75H17.5V10.5H22.75V8.75ZM17.5 12.25H22.75V14H17.5V12.25ZM17.5 15.75H22.75V17.5H17.5V15.75Z" fill="#FEFFFF" />
</svg>
    